# xmcd CD Database Entry
#
# Track frame offsets:
# 150
# 22921
# 41615
# 73465
# 92305
# 114556
# 133439
# 158435
# 180741
# 197459
# 216138
# 245037
# 268283
# 287576
# 310971
#
# Disc length: 4409 seconds
#
# Revision: 1
# Processed by: cddbd v1.4b41PL1 Copyright (c) Steve Scherf et al.
# Submitted via: tcd 2.0b
#
DISCID=dc11370f
DTITLE=Joe Ely - Live @ Antone's
DYEAR=1900
DGENRE=
TTITLE0=The Road Goes On Forever
TTITLE1=All Just to Get to You
TTITLE2=Gallo del Cielo
TTITLE3=Ranches and Rivers
TTITLE4=Workin' for the Man
TTITLE5=Me and Billy the Kid
TTITLE6=Up on the Ridge
TTITLE7=Rock Salt and Nails
TTITLE8=Nacho Mama
TTITLE9=Dallas
TTITLE10=Thousand Miles From Home
TTITLE11=Road Hawg
TTITLE12=Everybody Got Hammered
TTITLE13=My Eyes Got Lucky
TTITLE14=Oh Boy!
EXTD=
EXTT0=\t
EXTT1=
EXTT2=
EXTT3=
EXTT4=
EXTT5=
EXTT6=
EXTT7=
EXTT8=
EXTT9=
EXTT10=
EXTT11=
EXTT12=
EXTT13=
EXTT14=
PLAYORDER=
